# xmcd
#
# Track frame offsets: 
#        150
#        22951
#        50102
#        69753
#        105154
#        118430
#        142506
#        157732
#
# Disc length: 2536 seconds
#
# Revision: 1
# Processed by: cddbd v1.5.2PL0 Copyright (c) Steve Scherf et al.
# Submitted via: ExactAudioCopyFreeDBPlugin 1.0
#
DISCID=5809e608
DTITLE=Tadeusz Nalepa - To mój blues vol.II
DYEAR=1991
DGENRE=Blues
TTITLE0=Pozwól mi być z tobą tu
TTITLE1=Hołd
TTITLE2=Ten o tobie film
TTITLE3=Dbaj o miłość
TTITLE4=Więc bądź
TTITLE5=Nie żałuj mnie
TTITLE6=Już wstał twój dzień
TTITLE7=Musisz walczyć, musisz wierzyć
EXTD=
EXTT0=
EXTT1=
EXTT2=
EXTT3=
EXTT4=
EXTT5=
EXTT6=
EXTT7=
PLAYORDER=
